<svg width="791" height="718" viewBox="0 0 791 718" fill="none" xmlns="http://www.w3.org/2000/svg">
<path d="M622 371C622 373.761 628.239 376 631 376C633.761 376 636 373.761 636 371H622ZM140.5 371C140.5 235.69 245.69 130.323 381 130.323V116C240.167 116 125.5 230.167 125.5 371H140.5ZM381 130.323C516.31 130.323 622 235.69 622 371H636C636 230.167 521.833 116 381 116V130.323Z" fill="url(#paint0_linear_32_33)"/>
<g filter="url(#filter0_i_32_33)">
<path d="M373.5 624.164V492.164H245L303 387.164H272.5L332.5 278.664L300.5 275.164L345 193.664H324L380.5 97" stroke="url(#paint1_linear_32_33)" stroke-width="15"/>
</g>
<g filter="url(#filter1_d_32_33)">
<path d="M402.08 594C401.493 594 401 593.8 400.6 593.4C400.2 593 400 592.507 400 591.92V564.84C400 564.227 400.2 563.733 400.6 563.36C401 562.96 401.493 562.76 402.08 562.76H410.08C412.08 562.76 413.853 563.2 415.4 564.08C416.947 564.96 418.147 566.187 419 567.76C419.88 569.307 420.32 571.093 420.32 573.12C420.32 575.067 419.88 576.8 419 578.32C418.147 579.84 416.947 581.027 415.4 581.88C413.853 582.733 412.08 583.16 410.08 583.16H404.16V591.92C404.16 592.507 403.96 593 403.56 593.4C403.187 593.8 402.693 594 402.08 594ZM404.16 579.32H410.08C411.307 579.32 412.387 579.053 413.32 578.52C414.253 577.987 414.987 577.253 415.52 576.32C416.053 575.387 416.32 574.32 416.32 573.12C416.32 571.84 416.053 570.72 415.52 569.76C414.987 568.773 414.253 568 413.32 567.44C412.387 566.88 411.307 566.6 410.08 566.6H404.16V579.32ZM427.002 594C426.415 594 425.922 593.8 425.522 593.4C425.122 593 424.922 592.507 424.922 591.92V564.84C424.922 564.227 425.122 563.733 425.522 563.36C425.922 562.96 426.415 562.76 427.002 562.76H445.082C445.695 562.76 446.189 562.947 446.562 563.32C446.935 563.667 447.122 564.133 447.122 564.72C447.122 565.28 446.935 565.733 446.562 566.08C446.189 566.427 445.695 566.6 445.082 566.6H429.082V576.32H440.562C441.175 576.32 441.669 576.507 442.042 576.88C442.415 577.227 442.602 577.68 442.602 578.24C442.602 578.8 442.415 579.267 442.042 579.64C441.669 579.987 441.175 580.16 440.562 580.16H429.082V590.16H445.082C445.695 590.16 446.189 590.333 446.562 590.68C446.935 591.027 447.122 591.48 447.122 592.04C447.122 592.627 446.935 593.107 446.562 593.48C446.189 593.827 445.695 594 445.082 594H427.002ZM451.69 594C450.943 594 450.37 593.68 449.97 593.04C449.57 592.4 449.53 591.72 449.85 591L461.09 564.16C461.49 563.227 462.143 562.76 463.05 562.76C464.01 562.76 464.663 563.227 465.01 564.16L476.29 591.08C476.583 591.827 476.53 592.507 476.13 593.12C475.756 593.707 475.183 594 474.41 594C474.01 594 473.623 593.893 473.25 593.68C472.903 593.44 472.65 593.12 472.49 592.72L462.57 568.08H463.69L453.61 592.72C453.423 593.147 453.143 593.467 452.77 593.68C452.423 593.893 452.063 594 451.69 594ZM453.81 587.12L455.41 583.68H471.09L472.69 587.12H453.81ZM483.135 594C482.575 594 482.081 593.8 481.655 593.4C481.255 593 481.055 592.507 481.055 591.92V564.84C481.055 564.253 481.255 563.76 481.655 563.36C482.081 562.96 482.575 562.76 483.135 562.76C483.721 562.76 484.215 562.96 484.615 563.36C485.015 563.76 485.215 564.253 485.215 564.84V576.84L498.455 563.6C498.775 563.28 499.068 563.067 499.335 562.96C499.601 562.827 499.881 562.76 500.175 562.76C500.841 562.76 501.321 562.96 501.615 563.36C501.908 563.76 502.015 564.24 501.935 564.8C501.855 565.333 501.601 565.827 501.175 566.28L490.975 576.52L501.375 590.68C501.695 591.133 501.828 591.627 501.775 592.16C501.721 592.667 501.535 593.107 501.215 593.48C500.895 593.827 500.468 594 499.935 594C499.188 594 498.615 593.707 498.215 593.12L488.095 579.4L485.215 582.28V591.92C485.215 592.507 485.015 593 484.615 593.4C484.215 593.8 483.721 594 483.135 594Z" fill="#0C9500"/>
<path d="M528.693 594C528.106 594 527.613 593.8 527.213 593.4C526.813 593 526.613 592.507 526.613 591.92V562.76H530.773V591.92C530.773 592.507 530.573 593 530.173 593.4C529.773 593.8 529.28 594 528.693 594ZM517.973 566.6C517.413 566.6 516.946 566.427 516.573 566.08C516.226 565.707 516.053 565.24 516.053 564.68C516.053 564.12 516.226 563.667 516.573 563.32C516.946 562.947 517.413 562.76 517.973 562.76H539.373C539.933 562.76 540.386 562.947 540.733 563.32C541.106 563.667 541.293 564.12 541.293 564.68C541.293 565.24 541.106 565.707 540.733 566.08C540.386 566.427 539.933 566.6 539.373 566.6H517.973ZM547.978 594C547.392 594 546.898 593.8 546.498 593.4C546.098 593 545.898 592.507 545.898 591.92V564.84C545.898 564.227 546.098 563.733 546.498 563.36C546.898 562.96 547.392 562.76 547.978 562.76H555.178C557.178 562.76 558.952 563.187 560.498 564.04C562.045 564.867 563.245 566.013 564.098 567.48C564.978 568.947 565.418 570.653 565.418 572.6C565.418 574.413 564.978 576.027 564.098 577.44C563.245 578.853 562.045 579.96 560.498 580.76C558.952 581.56 557.178 581.96 555.178 581.96H550.058V591.92C550.058 592.507 549.858 593 549.458 593.4C549.085 593.8 548.592 594 547.978 594ZM564.578 594C564.205 594 563.858 593.92 563.538 593.76C563.245 593.6 562.992 593.347 562.778 593L555.578 581.4L559.618 580.24L566.178 590.8C566.658 591.573 566.725 592.307 566.378 593C566.032 593.667 565.432 594 564.578 594ZM550.058 578.12H555.178C556.405 578.12 557.485 577.893 558.418 577.44C559.352 576.96 560.085 576.307 560.618 575.48C561.152 574.627 561.418 573.667 561.418 572.6C561.418 571.427 561.152 570.387 560.618 569.48C560.085 568.573 559.352 567.867 558.418 567.36C557.485 566.853 556.405 566.6 555.178 566.6H550.058V578.12ZM573.252 594C572.665 594 572.172 593.8 571.772 593.4C571.372 593 571.172 592.507 571.172 591.92V564.84C571.172 564.227 571.372 563.733 571.772 563.36C572.172 562.96 572.665 562.76 573.252 562.76H591.332C591.945 562.76 592.439 562.947 592.812 563.32C593.185 563.667 593.372 564.133 593.372 564.72C593.372 565.28 593.185 565.733 592.812 566.08C592.439 566.427 591.945 566.6 591.332 566.6H575.332V576.32H586.812C587.425 576.32 587.919 576.507 588.292 576.88C588.665 577.227 588.852 577.68 588.852 578.24C588.852 578.8 588.665 579.267 588.292 579.64C587.919 579.987 587.425 580.16 586.812 580.16H575.332V590.16H591.332C591.945 590.16 592.439 590.333 592.812 590.68C593.185 591.027 593.372 591.48 593.372 592.04C593.372 592.627 593.185 593.107 592.812 593.48C592.439 593.827 591.945 594 591.332 594H573.252ZM601.26 594C600.673 594 600.18 593.8 599.78 593.4C599.38 593 599.18 592.507 599.18 591.92V564.84C599.18 564.227 599.38 563.733 599.78 563.36C600.18 562.96 600.673 562.76 601.26 562.76H619.34C619.953 562.76 620.446 562.947 620.82 563.32C621.193 563.667 621.38 564.133 621.38 564.72C621.38 565.28 621.193 565.733 620.82 566.08C620.446 566.427 619.953 566.6 619.34 566.6H603.34V576.32H614.82C615.433 576.32 615.926 576.507 616.3 576.88C616.673 577.227 616.86 577.68 616.86 578.24C616.86 578.8 616.673 579.267 616.3 579.64C615.926 579.987 615.433 580.16 614.82 580.16H603.34V590.16H619.34C619.953 590.16 620.446 590.333 620.82 590.68C621.193 591.027 621.38 591.48 621.38 592.04C621.38 592.627 621.193 593.107 620.82 593.48C620.446 593.827 619.953 594 619.34 594H601.26Z" fill="#966F33"/>
</g>
<g filter="url(#filter2_d_32_33)">
<path d="M397.755 61.9868C393.886 84.9558 393.636 98.5917 395.419 123.802C380.084 96.6612 382.713 94.9971 350.461 101.892C371.422 88.0149 381.941 79.3893 397.755 61.9868Z" fill="#0E6E06"/>
</g>
<g filter="url(#filter3_d_32_33)">
<path d="M133 371C133 509.071 242.929 617.5 381 617.5" stroke="url(#paint2_linear_32_33)" stroke-width="15"/>
</g>
<defs>
<filter id="filter0_i_32_33" x="232.289" y="93.2153" width="154.686" height="534.949" filterUnits="userSpaceOnUse" color-interpolation-filters="sRGB">
<feFlood flood-opacity="0" result="BackgroundImageFix"/>
<feBlend mode="normal" in="SourceGraphic" in2="BackgroundImageFix" result="shape"/>
<feColorMatrix in="SourceAlpha" type="matrix" values="0 0 0 0 0 0 0 0 0 0 0 0 0 0 0 0 0 0 127 0" result="hardAlpha"/>
<feOffset dy="4"/>
<feGaussianBlur stdDeviation="2"/>
<feComposite in2="hardAlpha" operator="arithmetic" k2="-1" k3="1"/>
<feColorMatrix type="matrix" values="0 0 0 0 0 0 0 0 0 0 0 0 0 0 0 0 0 0 0.25 0"/>
<feBlend mode="normal" in2="shape" result="effect1_innerShadow_32_33"/>
</filter>
<filter id="filter1_d_32_33" x="396" y="562.76" width="229.38" height="39.24" filterUnits="userSpaceOnUse" color-interpolation-filters="sRGB">
<feFlood flood-opacity="0" result="BackgroundImageFix"/>
<feColorMatrix in="SourceAlpha" type="matrix" values="0 0 0 0 0 0 0 0 0 0 0 0 0 0 0 0 0 0 127 0" result="hardAlpha"/>
<feOffset dy="4"/>
<feGaussianBlur stdDeviation="2"/>
<feComposite in2="hardAlpha" operator="out"/>
<feColorMatrix type="matrix" values="0 0 0 0 0 0 0 0 0 0 0 0 0 0 0 0 0 0 0.25 0"/>
<feBlend mode="normal" in2="BackgroundImageFix" result="effect1_dropShadow_32_33"/>
<feBlend mode="normal" in="SourceGraphic" in2="effect1_dropShadow_32_33" result="shape"/>
</filter>
<filter id="filter2_d_32_33" x="346.461" y="61.9868" width="55.2939" height="69.8152" filterUnits="userSpaceOnUse" color-interpolation-filters="sRGB">
<feFlood flood-opacity="0" result="BackgroundImageFix"/>
<feColorMatrix in="SourceAlpha" type="matrix" values="0 0 0 0 0 0 0 0 0 0 0 0 0 0 0 0 0 0 127 0" result="hardAlpha"/>
<feOffset dy="4"/>
<feGaussianBlur stdDeviation="2"/>
<feComposite in2="hardAlpha" operator="out"/>
<feColorMatrix type="matrix" values="0 0 0 0 0 0 0 0 0 0 0 0 0 0 0 0 0 0 0.25 0"/>
<feBlend mode="normal" in2="BackgroundImageFix" result="effect1_dropShadow_32_33"/>
<feBlend mode="normal" in="SourceGraphic" in2="effect1_dropShadow_32_33" result="shape"/>
</filter>
<filter id="filter3_d_32_33" x="121.5" y="371" width="263.5" height="262" filterUnits="userSpaceOnUse" color-interpolation-filters="sRGB">
<feFlood flood-opacity="0" result="BackgroundImageFix"/>
<feColorMatrix in="SourceAlpha" type="matrix" values="0 0 0 0 0 0 0 0 0 0 0 0 0 0 0 0 0 0 127 0" result="hardAlpha"/>
<feOffset dy="4"/>
<feGaussianBlur stdDeviation="2"/>
<feComposite in2="hardAlpha" operator="out"/>
<feColorMatrix type="matrix" values="0 0 0 0 0 0 0 0 0 0 0 0 0 0 0 0 0 0 0.25 0"/>
<feBlend mode="normal" in2="BackgroundImageFix" result="effect1_dropShadow_32_33"/>
<feBlend mode="normal" in="SourceGraphic" in2="effect1_dropShadow_32_33" result="shape"/>
</filter>
<linearGradient id="paint0_linear_32_33" x1="383.5" y1="120.987" x2="383.5" y2="370.987" gradientUnits="userSpaceOnUse">
<stop offset="0.0510821" stop-color="#14FF00" stop-opacity="0"/>
<stop offset="0.0511821" stop-color="#109401"/>
</linearGradient>
<linearGradient id="paint1_linear_32_33" x1="318.5" y1="71.1638" x2="318.5" y2="624.164" gradientUnits="userSpaceOnUse">
<stop offset="0.74393" stop-color="#0E6E06"/>
<stop offset="0.848102" stop-color="#966F33"/>
</linearGradient>
<linearGradient id="paint2_linear_32_33" x1="256.75" y1="617.5" x2="256.75" y2="371" gradientUnits="userSpaceOnUse">
<stop offset="0.269944" stop-color="#966F33"/>
<stop offset="0.55121" stop-color="#119502"/>
</linearGradient>
</defs>
</svg>
